<?xml version="1.0" standalone="no"?>
<!DOCTYPE svg PUBLIC "-//W3C//DTD SVG 20010904//EN"
 "http://www.w3.org/TR/2001/REC-SVG-20010904/DTD/svg10.dtd">
<svg version="1.0" xmlns="http://www.w3.org/2000/svg"
 width="603.000000pt" height="603.000000pt" viewBox="0 0 603.000000 603.000000"
 preserveAspectRatio="xMidYMid meet">
<metadata>
Created by potrace 1.11, written by Peter Selinger 2001-2013
</metadata>
<g transform="translate(0.000000,603.000000) scale(0.100000,-0.100000)"
fill="#000000" stroke="none">
<path d="M2828 6025 c-2 -1 -46 -6 -98 -10 -52 -3 -97 -8 -100 -10 -3 -1 -27
-5 -55 -9 -27 -3 -61 -8 -75 -11 -14 -3 -41 -8 -60 -11 -19 -3 -53 -10 -75
-15 -22 -5 -51 -12 -65 -15 -74 -15 -283 -82 -395 -126 -91 -36 -332 -151
-380 -181 -11 -6 -62 -39 -115 -71 -80 -50 -222 -151 -310 -222 -98 -79 -279
-257 -366 -359 -32 -38 -62 -72 -65 -75 -38 -34 -190 -259 -278 -412 -86 -149
-205 -417 -235 -528 -4 -14 -11 -34 -16 -45 -19 -46 -82 -308 -94 -396 -4 -25
-9 -58 -12 -72 -34 -190 -39 -587 -9 -812 29 -222 108 -542 166 -674 10 -24
19 -48 19 -52 0 -26 151 -333 215 -440 137 -225 269 -393 455 -579 128 -128
182 -178 275 -249 22 -17 45 -34 50 -39 341 -266 835 -480 1285 -557 52 -9
105 -18 118 -20 73 -12 223 -20 407 -20 302 1 455 18 735 87 254 61 575 194
795 327 37 23 71 41 75 41 5 0 10 3 12 8 2 4 37 29 78 57 445 296 831 762
1059 1276 109 246 199 571 227 814 2 22 8 67 12 100 10 80 9 501 -1 595 -10
89 -18 148 -31 220 -3 19 -8 46 -10 60 -38 242 -185 639 -335 903 -64 114
-216 338 -263 389 -7 7 -33 38 -58 68 -77 95 -211 231 -320 326 -25 21 -51 45
-58 51 -24 23 -237 180 -268 199 -208 124 -276 161 -374 207 -164 78 -442 177
-565 202 -11 2 -52 10 -91 19 -77 16 -169 32 -249 41 -27 3 -66 8 -85 11 -35
6 -467 14 -472 9z"/>
</g>
</svg>
